<svg xmlns="http://www.w3.org/2000/svg" viewBox="0 0 900 420" role="img" aria-labelledby="title desc">
  <title id="title">Formation sociale INSFS</title>
  <desc id="desc">Illustration institutionnelle pour la formation sociale.</desc>
  <defs>
    <linearGradient id="bg" x1="0" x2="1" y1="0" y2="1">
      <stop offset="0" stop-color="#ffffff" stop-opacity=".24"/>
      <stop offset="1" stop-color="#ffffff" stop-opacity=".08"/>
    </linearGradient>
    <linearGradient id="orange" x1="0" x2="1">
      <stop offset="0" stop-color="#ff9700"/>
      <stop offset="1" stop-color="#ef1b1b"/>
    </linearGradient>
  </defs>
  <rect width="900" height="420" rx="34" fill="url(#bg)"/>
  <circle cx="760" cy="90" r="120" fill="#ffffff" opacity=".12"/>
  <circle cx="120" cy="340" r="150" fill="#ff9700" opacity=".16"/>
  <rect x="110" y="105" width="680" height="210" rx="28" fill="#ffffff" opacity=".92"/>
  <rect x="155" y="150" width="150" height="120" rx="24" fill="#eaf4ff"/>
  <circle cx="230" cy="196" r="34" fill="#00498f"/>
  <path d="M188 252c18-34 66-34 84 0" fill="none" stroke="#ff9700" stroke-width="16" stroke-linecap="round"/>
  <rect x="355" y="150" width="310" height="22" rx="11" fill="#00498f" opacity=".9"/>
  <rect x="355" y="204" width="385" height="16" rx="8" fill="#00498f" opacity=".35"/>
  <rect x="355" y="246" width="280" height="16" rx="8" fill="#00498f" opacity=".35"/>
  <rect x="660" y="250" width="74" height="46" rx="23" fill="url(#orange)"/>
  <path d="M685 273h24M697 261v24" stroke="#ffffff" stroke-width="8" stroke-linecap="round"/>
</svg>
